<svg xmlns="http://www.w3.org/2000/svg" width="130" height="59.999" viewBox="0 -0.208 130 59.999"><g fill="#83CF56"><path d="M30 59.791c-16.542 0-30-13.457-30-29.999s13.458-30 30-30 30 13.458 30 30-13.458 29.999-30 29.999zM30 .775C14 .775.983 13.792.983 29.792.983 45.791 14 58.808 30 58.808s29.017-13.017 29.017-29.016C59.017 13.792 46 .775 30 .775z"/><path d="M41.657 40.09l-.006-.065a2.973 2.973 0 0 0-.019-.155c-.003-.025-.006-.05-.011-.074a4.941 4.941 0 0 0-.034-.186.952.952 0 0 0-.01-.052c-.017-.08-.036-.163-.058-.249-.006-.021-.012-.044-.018-.065-.018-.066-.036-.133-.056-.202-.009-.028-.018-.059-.027-.089a7.893 7.893 0 0 0-.065-.205c-.009-.025-.017-.052-.025-.077a17.518 17.518 0 0 0-.103-.293.311.311 0 0 0-.009-.024c-.034-.093-.07-.188-.107-.282a3.2176 3.2176 0 0 0-.035-.088c-.031-.078-.064-.159-.098-.24-.011-.027-.023-.056-.035-.085-.043-.104-.089-.209-.136-.315-.001-.003-.003-.006-.004-.009-.051-.116-.104-.233-.158-.354-.007-.016-.016-.032-.023-.049-.047-.102-.095-.204-.144-.309-.011-.021-.021-.044-.032-.065-.054-.112-.108-.226-.165-.34-.003-.006-.005-.011-.008-.018-.126-.257-.259-.517-.396-.781-.003-.004-.005-.01-.008-.014-2.405-4.619-6.367-10.28-6.367-10.28v-8.167h1.167v-1.166H25.332v1.166H26.5v8.167s-3.965 5.664-6.369 10.283a.03.03 0 0 1-.004.008c-.138.267-.271.528-.399.786a.009.009 0 0 1-.003.007c-.058.118-.115.235-.17.352-.009.02-.019.039-.028.058-.051.107-.101.214-.149.319-.006.013-.013.026-.019.041-.107.233-.207.461-.3.683-.011.025-.021.051-.032.076-.035.085-.069.169-.103.253-.01.025-.021.052-.03.077-.04.102-.079.202-.115.301 0 .003-.001.004-.002.007-.037.102-.072.201-.105.298-.008.023-.015.046-.022.069-.024.073-.047.146-.069.216-.008.027-.016.055-.024.081-.021.072-.041.143-.059.213-.005.018-.011.037-.015.056-.022.087-.042.171-.06.253-.003.015-.005.027-.008.042-.014.066-.026.132-.036.194-.004.024-.007.047-.011.069a3.229 3.229 0 0 0-.019.162l-.006.061c-.005.07-.009.139-.009.203 0 3.063 2.679 3.445 3.35 3.493.096.007.15.007.15.007h16.332s3.5 0 3.5-3.5c0-.065-.004-.134-.009-.203zm-16.324-3.298c.644 0 1.167.522 1.167 1.166s-.523 1.167-1.167 1.167-1.167-.523-1.167-1.167.522-1.166 1.167-1.166zm1.167-3.5c0-1.29 1.044-2.334 2.333-2.334 1.288 0 2.333 1.044 2.333 2.334 0 1.288-1.045 2.333-2.333 2.333S26.5 34.58 26.5 33.292zm6.999 6.999c-1.289 0-2.333-1.045-2.333-2.333 0-1.29 1.044-2.333 2.333-2.333s2.333 1.043 2.333 2.333c.001 1.288-1.044 2.333-2.333 2.333zm-6.044-14.497l.211-.302V16.958h4.666V25.492l.21.302c.588.839 1.241 1.804 1.914 2.831H25.54c.674-1.027 1.327-1.992 1.915-2.831z"/></g><circle fill="#83CF56" cx="100" cy="29.792" r="30"/><path fill="#FFF" d="M111.656 40.089l-.006-.065a3.03 3.03 0 0 0-.02-.156c-.003-.024-.006-.049-.01-.074-.01-.06-.021-.122-.035-.186a.9177.9177 0 0 0-.01-.051 4.6877 4.6877 0 0 0-.059-.25c-.006-.021-.012-.043-.018-.065-.018-.065-.036-.133-.057-.201-.008-.029-.018-.059-.026-.089-.021-.067-.042-.136-.065-.205-.008-.026-.017-.052-.025-.078a9.4823 9.4823 0 0 0-.103-.293c-.003-.008-.007-.016-.009-.024-.035-.092-.07-.187-.107-.282-.012-.029-.023-.058-.035-.087-.031-.079-.064-.159-.098-.24-.012-.028-.023-.057-.035-.086a11.925 11.925 0 0 0-.136-.314c-.001-.004-.003-.006-.004-.009a45.157 45.157 0 0 0-.158-.354c-.007-.017-.016-.033-.022-.05l-.145-.308c-.011-.021-.021-.044-.031-.066-.055-.112-.109-.225-.165-.34-.003-.006-.005-.011-.009-.018a33.867 33.867 0 0 0-.396-.78c-.003-.005-.005-.01-.008-.015-2.404-4.618-6.366-10.279-6.366-10.279v-8.166h1.166v-1.167H95.332v1.167H96.5v8.166s-3.965 5.665-6.369 10.284c-.001.002-.002.005-.004.007-.138.267-.271.529-.399.787 0 .002-.001.004-.003.007-.058.117-.115.235-.17.351-.009.02-.019.039-.028.059-.051.107-.101.214-.149.318-.006.014-.013.027-.019.041-.107.233-.207.462-.3.683-.011.026-.021.052-.032.077-.035.085-.069.169-.103.253-.01.025-.021.051-.03.076-.04.103-.079.203-.115.302 0 .002-.001.004-.002.006-.037.102-.072.201-.105.299-.008.023-.015.046-.022.068-.024.073-.047.146-.069.217-.008.026-.016.054-.024.08-.021.072-.041.144-.059.213-.005.019-.011.038-.015.056-.022.088-.042.172-.06.254-.003.014-.005.027-.008.041-.014.067-.026.132-.036.195-.004.023-.007.046-.011.068-.008.056-.014.11-.019.163l-.006.061c-.005.069-.009.138-.009.202 0 3.063 2.679 3.445 3.35 3.493.096.007.15.007.15.007h16.332s3.5 0 3.5-3.5c0-.066-.004-.133-.01-.203zm-16.323-3.298c.644 0 1.167.523 1.167 1.167s-.523 1.166-1.167 1.166-1.167-.522-1.167-1.166c0-.645.522-1.167 1.167-1.167zm1.167-3.5c0-1.289 1.044-2.333 2.333-2.333 1.288 0 2.333 1.044 2.333 2.333 0 1.288-1.045 2.334-2.333 2.334S96.5 34.579 96.5 33.291zm6.999 7c-1.288 0-2.333-1.045-2.333-2.334s1.045-2.333 2.333-2.333 2.333 1.044 2.333 2.333-1.045 2.334-2.333 2.334zm-6.044-14.498l.211-.303V16.957h4.666V25.49l.211.303c.588.839 1.241 1.803 1.914 2.83h-8.916c.673-1.026 1.326-1.991 1.914-2.83z"/></svg>